<?xml version="1.0" encoding="utf-8"?>
<!-- Generator: Adobe Illustrator 21.0.0, SVG Export Plug-In . SVG Version: 6.00 Build 0)  -->
<svg version="1.1" id="Ebene_1" xmlns="http://www.w3.org/2000/svg" xmlns:xlink="http://www.w3.org/1999/xlink" x="0px" y="0px"
	 viewBox="0 0 904.8 283.5" style="enable-background:new 0 0 904.8 283.5;" xml:space="preserve">
<style type="text/css">
	.st0{fill:#333333;}
	.st1{fill:#5FBFED;}
</style>
<g>
	<path class="st0" d="M242.3,143.6c0-24.5,11.5-37.8,41.7-37.8c30.4,0,41.6,13.3,41.6,37.8c0,24.7-10.7,37.4-41.6,37.4
		C253.9,181,242.3,167.8,242.3,143.6z M283.9,122.7c-7.2,0-10.9,3.2-12.4,7.3c-0.7,2-1,4.1-1.1,6.2c0,2.2,0,5.3,0,7.2
		c0,2.1,0,4.5,0,6.7c0.1,2.2,0.4,4.4,1.1,6.5c1.5,4.3,5.2,7.6,12.7,7.6c7.3,0,11-3.3,12.4-7.6c0.7-2.1,0.9-4.3,1.1-6.5
		c0.1-2.2,0-4.6,0-6.6c0-2.2,0.1-5.3,0-7.3c-0.2-2.2-0.4-4.4-1.1-6.3C295,125.6,291.2,122.7,283.9,122.7z M389.5,180.1
		C379,168.4,368,157,357.3,143.4l-3.2,1.2l0.2,9.4v26.1h-23.2V107h22.2l28.4,33.9l3-1.2l-0.2-9.4v-23.2h23.2v73.2h-18.3V180.1z
		 M463,122.7v57.4h-27.1v-57.4h-21.6V107h80.8l-11,15.7H463z M489.2,143.6c0-24.5,11.5-37.8,41.7-37.8c30.4,0,41.6,13.3,41.6,37.8
		c0,24.7-10.7,37.4-41.6,37.4C500.9,181,489.2,167.8,489.2,143.6z M530.8,122.7c-7.2,0-10.9,3.2-12.4,7.3c-0.7,2-1,4.1-1.1,6.2
		c0,2.2,0,5.2,0,7.2c0,2.1,0,4.5,0,6.7c0.1,2.2,0.4,4.4,1.1,6.5c1.5,4.3,5.2,7.6,12.7,7.6c7.3,0,11-3.3,12.4-7.6
		c0.7-2.1,0.9-4.3,1.1-6.5c0.1-2.2,0-4.6,0-6.6c0-2.2,0.2-5.2,0-7.3c-0.2-2.2-0.4-4.4-1.1-6.3C541.9,125.6,538.3,122.7,530.8,122.7z
		 M624.4,180.1l-20-29.7v29.7h-26.6V107h34.7c21.5,0,38.2,5.1,38.2,24.1c0,10-3.8,16.3-16.6,21.7l21,27.4h-30.7V180.1z M604.3,123
		v18.4h8.5c8.8,0,10.1-3.2,10.1-9.4c0-6.2-1.7-9-10.1-9L604.3,123z M661.5,180.1V107h30v73.2H661.5z M698,143.6
		c0-24.5,11.5-37.8,41.7-37.8c30.4,0,41.6,13.3,41.6,37.8c0,24.7-10.7,37.4-41.6,37.4C709.5,181,698,167.8,698,143.6z M739.4,122.7
		c-7.2,0-10.9,3.2-12.4,7.3c-0.7,2-1,4.1-1.1,6.2c0,2.2,0,5.2,0,7.2c0,2.1,0,4.5,0,6.7c0.1,2.2,0.4,4.4,1.1,6.5
		c1.5,4.3,5.2,7.6,12.7,7.6c7.3,0,11-3.3,12.4-7.6c0.7-2.1,0.9-4.3,1.1-6.5c0.1-2.2,0-4.6,0-6.6c0-2.2,0.1-5.2,0-7.3
		c-0.2-2.2-0.4-4.4-1.1-6.3C750.6,125.6,746.8,122.7,739.4,122.7z M845.1,180.1c-10.5-11.7-21.5-23.2-32.2-36.7l-3.2,1.2l0.2,9.4
		v26.1h-23.2V107H809l28.4,33.9l3-1.2l-0.2-9.4v-23.2h23.2v73.2h-18.3V180.1z"/>
	<path class="st0" d="M207,164.2c-3,0-16.9,0-16.9-20.8c0-20.7,13.8-20.6,16.9-20.6l28.3,0c1.9,0,3.3-1.8,2.7-3.6
		c-2.3-7.5-13.6-20-35.1-20c-13.9,0-40.6,12-40.6,43.9c0,32.3,26.2,43.8,40,43.8c21.1,0,32.8-11.7,35.5-18.7
		c0.7-1.9-0.6-3.9-2.6-3.9L207,164.2z"/>
	<g>
		<path class="st0" d="M141.4,123c8.5-27.3,33.9-47.2,64-47.2c17.8,0,31.9,7,44,18.2c7.7-5,16.7-8.3,26.3-9.2
			C258.4,64.2,234.5,49,205.5,49c-34.9,0-65.2,19-81.4,47.2H79.8L67.6,123h46.1H141.4z"/>
		<path class="st0" d="M249.4,191.7c-12,11.3-26.2,18.2-44,18.2c-30.4,0-56.1-20.2-64.3-47.9h-27.7H31l12.2,26.8h80.3
			c16.1,28.5,46.8,47.9,81.9,47.9c29,0,53-15.2,70.2-35.9c0,0-0.1,0-0.1,0C266,200,257,196.7,249.4,191.7z"/>
	</g>
	<g>
		<path class="st1" d="M350.2,228.6h-9.5l-4,8.2h-5.3l15.5-29h5.7l3.1,29h-5L350.2,228.6z M349.9,224.9l-0.3-4.4
			c-0.1-1.5-0.2-3-0.3-4.4c-0.1-1.4-0.2-3-0.2-4.6h-0.2c-0.7,1.6-1.4,3.1-2.1,4.6c-0.7,1.4-1.4,2.9-2.2,4.4l-2.2,4.4H349.9z"/>
		<path class="st1" d="M369.1,207.7h4.8l-5,25h11.6l-0.8,4h-16.4L369.1,207.7z"/>
		<path class="st1" d="M394.8,207.7h4.8l-5,25h11.6l-0.8,4h-16.4L394.8,207.7z"/>
		<path class="st1" d="M420.6,207.7h16.6l-0.8,4h-11.9l-1.6,7.8h10.1l-0.8,4h-10l-1.9,9.1h12.2l-0.8,4h-17L420.6,207.7z"/>
		<path class="st1" d="M443.8,229.3c0.9,1.2,1.9,2.1,3.1,2.8c1.2,0.7,2.5,1,3.9,1c1.5,0,2.8-0.4,3.7-1.2c1-0.8,1.5-1.9,1.5-3.2
			c0-0.9-0.3-1.7-1-2.3c-0.6-0.6-1.5-1.2-2.6-1.9l-3.1-1.9c-1.3-0.8-2.3-1.7-3.2-2.8c-0.8-1.1-1.2-2.5-1.2-4.2
			c0-1.2,0.2-2.2,0.7-3.3c0.5-1,1.2-1.9,2-2.7c0.9-0.8,1.9-1.4,3.1-1.8c1.2-0.4,2.4-0.7,3.8-0.7c1.7,0,3.3,0.4,4.8,1.2
			c1.4,0.8,2.7,1.8,3.7,3.1l-3.1,2.8c-0.7-0.8-1.6-1.5-2.5-2.1c-0.9-0.6-2-0.8-3.2-0.8c-1.4,0-2.5,0.4-3.3,1.2
			c-0.8,0.8-1.2,1.7-1.2,2.7c0,0.9,0.3,1.7,1,2.3c0.7,0.6,1.6,1.2,2.7,1.9l3.1,1.9c1.4,0.8,2.5,1.8,3.2,2.8c0.7,1,1,2.4,1,4.1
			c0,1.3-0.3,2.5-0.8,3.6c-0.5,1.1-1.2,2.1-2.2,2.9s-2,1.5-3.3,1.9c-1.3,0.5-2.7,0.7-4.3,0.7c-2,0-3.8-0.4-5.5-1.2
			c-1.7-0.8-3.2-2.2-4.5-4L443.8,229.3z"/>
		<path class="st1" d="M499.7,207.7h16.6l-0.8,4h-11.9l-1.7,8.6H512l-0.8,4h-10l-2.5,12.4h-4.8L499.7,207.7z"/>
		<path class="st1" d="M525.7,207.7h4.8l-3.2,16.2c-0.3,1.2-0.4,2.4-0.4,3.4c0,1.9,0.4,3.3,1.2,4.3c0.8,1,2.1,1.5,3.9,1.5
			c1.5,0,2.9-0.6,4-1.9c1.1-1.2,2-3.3,2.6-6.3l3.5-17.3h4.7l-3.5,17.3c-0.9,4.3-2.2,7.4-4.2,9.4c-1.9,1.9-4.3,2.9-7.2,2.9
			c-3.2,0-5.7-0.8-7.3-2.4c-1.6-1.6-2.5-4-2.5-7.2c0-0.6,0.1-1.4,0.2-2.1c0.1-0.8,0.2-1.5,0.4-2.3L525.7,207.7z M532.7,205.3
			c-0.6,0-1.1-0.2-1.6-0.6c-0.4-0.4-0.6-0.9-0.6-1.6c0-0.7,0.3-1.4,0.8-2c0.5-0.6,1.2-0.9,2-0.9c0.6,0,1.1,0.2,1.5,0.6
			c0.4,0.4,0.6,0.9,0.6,1.6c0,0.7-0.3,1.4-0.8,2C534.1,205,533.5,205.3,532.7,205.3z M540.6,205.3c-0.6,0-1.1-0.2-1.6-0.6
			c-0.4-0.4-0.6-0.9-0.6-1.6c0-0.7,0.3-1.4,0.8-2c0.5-0.6,1.2-0.9,2-0.9c0.6,0,1.1,0.2,1.5,0.6c0.4,0.4,0.6,0.9,0.6,1.6
			c0,0.7-0.3,1.4-0.8,2C542,205,541.4,205.3,540.6,205.3z"/>
		<path class="st1" d="M566.8,207.7c1.4,0,2.7,0.1,3.8,0.4c1.2,0.3,2.2,0.7,3,1.2c0.8,0.6,1.5,1.3,2,2.2c0.5,0.9,0.7,2,0.7,3.3
			c0,1.4-0.2,2.6-0.6,3.7c-0.4,1.1-1,2-1.7,2.9c-0.7,0.8-1.5,1.5-2.5,2.1c-1,0.6-2,1-3.2,1.3l4.8,12H568l-4.2-11.4h-4.3l-2.3,11.4
			h-4.8l5.8-29H566.8z M564,221.5c2.5,0,4.4-0.5,5.6-1.6c1.3-1.1,1.9-2.5,1.9-4.4c0-1.4-0.5-2.4-1.4-3c-1-0.6-2.4-0.9-4.2-0.9h-3.6
			l-1.9,9.9H564z"/>
		<path class="st1" d="M612.2,207.7h5.9c4.1,0,7.2,1,9.3,2.9c2.2,1.9,3.2,4.8,3.2,8.5c0,2.8-0.4,5.2-1.1,7.4c-0.8,2.2-1.8,4-3.2,5.5
			c-1.4,1.5-3,2.7-5,3.5c-1.9,0.8-4.1,1.2-6.5,1.2h-8.4L612.2,207.7z M614.7,232.9c1.6,0,3.1-0.3,4.5-0.9c1.3-0.6,2.5-1.5,3.5-2.6
			c1-1.2,1.7-2.6,2.3-4.2c0.5-1.7,0.8-3.6,0.8-5.7c0-2.6-0.7-4.6-2-5.9c-1.4-1.3-3.3-2-5.8-2h-1.8l-4.2,21.3H614.7z"/>
		<path class="st1" d="M643.4,207.7H660l-0.8,4h-11.9l-1.6,7.8h10.1l-0.8,4h-10l-1.9,9.1h12.2l-0.8,4h-17L643.4,207.7z"/>
		<path class="st1" d="M670.7,207.7h4.7l5.7,16.8l1.7,6.3h0.2c0.2-1.5,0.4-3.1,0.5-4.9c0.2-1.7,0.4-3.4,0.8-5l2.6-13.2h4.6l-5.8,29
			H681l-5.6-16.8l-1.7-6.3h-0.2c-0.2,1.6-0.4,3.2-0.6,4.9c-0.2,1.7-0.5,3.3-0.8,4.9l-2.6,13.3h-4.6L670.7,207.7z"/>
		<path class="st1" d="M729,207.7h8.7c1.4,0,2.7,0.1,3.8,0.4c1.2,0.3,2.2,0.7,3,1.3c0.8,0.6,1.5,1.4,2,2.3s0.7,2.1,0.7,3.4
			c0,1.9-0.3,3.5-1,4.9c-0.7,1.4-1.6,2.5-2.8,3.3c-1.2,0.9-2.6,1.5-4.1,1.9c-1.6,0.4-3.3,0.6-5.1,0.6h-4l-2.1,10.9h-4.8L729,207.7z
			 M734.6,222c2.6,0,4.5-0.5,5.9-1.6c1.3-1.1,2-2.6,2-4.7c0-1.5-0.5-2.6-1.5-3.3c-1-0.7-2.4-1-4.2-1H733l-2,10.5H734.6z"/>
		<path class="st1" d="M766.1,207.7c1.4,0,2.7,0.1,3.8,0.4c1.2,0.3,2.2,0.7,3,1.2c0.8,0.6,1.5,1.3,2,2.2c0.5,0.9,0.7,2,0.7,3.3
			c0,1.4-0.2,2.6-0.6,3.7c-0.4,1.1-1,2-1.7,2.9c-0.7,0.8-1.5,1.5-2.5,2.1c-1,0.6-2,1-3.2,1.3l4.8,12h-5.1l-4.2-11.4h-4.3l-2.3,11.4
			h-4.8l5.8-29H766.1z M763.3,221.5c2.5,0,4.4-0.5,5.6-1.6c1.3-1.1,1.9-2.5,1.9-4.4c0-1.4-0.5-2.4-1.4-3c-1-0.6-2.4-0.9-4.2-0.9
			h-3.6l-1.9,9.9H763.3z"/>
		<path class="st1" d="M793.4,237.3c-1.6,0-3.1-0.3-4.4-0.8c-1.3-0.6-2.4-1.4-3.3-2.4c-0.9-1.1-1.6-2.4-2.1-3.9
			c-0.5-1.5-0.7-3.2-0.7-5.1c0-2.4,0.4-4.7,1.1-6.8c0.8-2.2,1.8-4.1,3.1-5.7c1.3-1.6,2.8-2.9,4.6-3.9c1.8-1,3.6-1.4,5.7-1.4
			c1.6,0,3.1,0.3,4.4,0.8c1.3,0.6,2.4,1.4,3.3,2.4c0.9,1.1,1.6,2.4,2.1,3.9c0.5,1.5,0.7,3.2,0.7,5.1c0,2.4-0.4,4.7-1.1,6.8
			c-0.7,2.2-1.8,4.1-3.1,5.7c-1.3,1.6-2.8,2.9-4.6,3.9C797.3,236.8,795.4,237.3,793.4,237.3z M797.1,211.3c-1.3,0-2.5,0.4-3.6,1.2
			c-1.1,0.8-2.1,1.8-2.9,3c-0.8,1.2-1.5,2.7-2,4.3c-0.5,1.6-0.7,3.3-0.7,4.9c0,2.6,0.5,4.7,1.4,6.2c1,1.5,2.4,2.3,4.4,2.3
			c1.3,0,2.5-0.4,3.6-1.2c1.1-0.8,2.1-1.8,3-3c0.8-1.2,1.5-2.7,2-4.3c0.5-1.6,0.7-3.3,0.7-4.9c0-2.6-0.5-4.7-1.5-6.2
			C800.5,212,799.1,211.3,797.1,211.3z"/>
		<path class="st1" d="M820.7,207.7h16.6l-0.8,4h-11.9l-1.7,8.6H833l-0.8,4h-10l-2.5,12.4h-4.8L820.7,207.7z"/>
		<path class="st1" d="M846.8,207.7h4.8l-5.8,29h-4.8L846.8,207.7z"/>
		<path class="st1" d="M859.8,237.3c-0.8,0-1.4-0.3-1.9-0.8c-0.5-0.5-0.7-1.2-0.7-2c0-0.5,0.1-0.9,0.3-1.4c0.2-0.5,0.4-0.9,0.8-1.2
			c0.3-0.4,0.7-0.6,1.2-0.9c0.4-0.2,0.9-0.3,1.5-0.3c0.8,0,1.4,0.3,1.9,0.8c0.5,0.5,0.7,1.2,0.7,2c0,0.5-0.1,0.9-0.3,1.4
			c-0.2,0.5-0.4,0.9-0.7,1.2c-0.3,0.4-0.7,0.6-1.2,0.8C860.8,237.1,860.4,237.3,859.8,237.3z"/>
	</g>
</g>
</svg>
